<?xml version="1.0" encoding="UTF-8" standalone="no"?>
<svg
   xmlns:dc="http://purl.org/dc/elements/1.1/"
   xmlns:cc="http://creativecommons.org/ns#"
   xmlns:rdf="http://www.w3.org/1999/02/22-rdf-syntax-ns#"
   xmlns:svg="http://www.w3.org/2000/svg"
   xmlns="http://www.w3.org/2000/svg"
   xmlns:sodipodi="http://sodipodi.sourceforge.net/DTD/sodipodi-0.dtd"
   xmlns:inkscape="http://www.inkscape.org/namespaces/inkscape"
   version="1.1"
   id="svg2"
   xml:space="preserve"
   width="1122.52"
   height="793.70135"
   viewBox="0 0 1122.52 793.70135"
   sodipodi:docname="Logo_judilibre.svg"
   inkscape:version="1.0.2 (e86c870879, 2021-01-15)"><metadata
     id="metadata8"><rdf:RDF><cc:Work
         rdf:about=""><dc:format>image/svg+xml</dc:format><dc:type
           rdf:resource="http://purl.org/dc/dcmitype/StillImage" /><dc:title></dc:title></cc:Work></rdf:RDF></metadata><defs
     id="defs6"><clipPath
       clipPathUnits="userSpaceOnUse"
       id="clipPath18"><path
         d="M 0,595.276 H 841.89 V 0 H 0 Z"
         id="path16" /></clipPath></defs><sodipodi:namedview
     pagecolor="#ffffff"
     bordercolor="#666666"
     borderopacity="1"
     objecttolerance="10"
     gridtolerance="10"
     guidetolerance="10"
     inkscape:pageopacity="0"
     inkscape:pageshadow="2"
     inkscape:window-width="1637"
     inkscape:window-height="674"
     id="namedview4"
     showgrid="false"
     inkscape:zoom="1.0091957"
     inkscape:cx="338.80563"
     inkscape:cy="396.85068"
     inkscape:window-x="26"
     inkscape:window-y="23"
     inkscape:window-maximized="0"
     inkscape:current-layer="g10" /><g
     id="g10"
     inkscape:groupmode="layer"
     inkscape:label="Logo Judilibre Cour de cassation"
     transform="matrix(1.3333333,0,0,-1.3333333,0,793.70133)"><g
       id="g12"><g
         id="g14"
         clip-path="url(#clipPath18)"><g
           id="g20"
           transform="translate(70.751,217.0022)"><path
             d="m 0,0 c 2.171,2.168 4.026,4.613 6.041,6.918 1.6,1.829 1.573,1.859 3.447,0.348 12.717,-10.259 27.114,-16.97 43.209,-19.693 26.832,-4.538 51.318,1.315 73.325,17.342 0.88,0.641 1.324,0.791 2.15,-0.118 2.14,-2.355 4.476,-4.527 6.912,-6.578 0.695,-0.585 0.586,-0.833 -0.056,-1.33 -11.497,-8.91 -24.246,-15.302 -38.31,-19.044 -6.981,-1.858 -14.078,-3.021 -21.303,-3.357 -0.177,-0.008 -0.371,0.018 -0.481,-0.175 H 63.507 c -0.202,0.324 -0.531,0.17 -0.798,0.186 -8.685,0.522 -17.173,2.11 -25.466,4.724 C 23.447,-16.43 11.038,-9.562 0,-0.22 Z"
             style="fill:#a71a27;fill-opacity:1;fill-rule:nonzero;stroke:none"
             id="path22" /></g><g
           id="g24"
           transform="translate(171.1606,301.0534)"><path
             d="m 0,0 c 0.5,28.948 10.4,54.14 30.226,75.36 4.609,4.933 9.704,9.323 15.145,13.32 0.588,0.432 0.869,0.482 1.332,-0.191 1.863,-2.711 3.787,-5.383 5.724,-8.043 0.43,-0.591 0.549,-0.872 -0.176,-1.408 C 33.616,65.267 21.189,47.22 15.115,24.86 12.085,13.708 11.22,2.36 12.267,-9.153 c 3.077,-33.814 23.864,-63.504 53.95,-78.451 12.516,-6.218 25.765,-9.654 39.75,-10.087 25.277,-0.781 47.607,7.01 67.016,23.179 0.657,0.548 0.965,0.544 1.52,-0.116 2.094,-2.493 4.231,-4.951 6.411,-7.369 0.558,-0.621 0.502,-0.89 -0.116,-1.413 -13.226,-11.202 -28.251,-18.882 -45.081,-23.033 -12.231,-3.016 -24.636,-3.894 -37.151,-2.578 -23.804,2.505 -44.673,11.767 -62.415,27.815 C 19.064,-65.75 7.953,-46.703 2.735,-24.264 0.882,-16.297 0.025,-8.202 0,0"
             style="fill:#a71a27;fill-opacity:1;fill-rule:nonzero;stroke:none"
             id="path26" /></g><g
           id="g28"
           transform="translate(208.5327,318.7234)"><path
             d="m 0,0 c 0,13.1 0.006,26.2 -0.016,39.299 -0.002,0.724 0.217,1.202 0.754,1.679 16.718,14.827 33.425,29.666 50.116,44.523 0.599,0.534 1.022,0.553 1.706,0.177 C 62.558,80.17 73.247,76.69 84.533,75.104 96.5,73.422 108.176,74.37 119.3,79.48 c 0.668,0.307 0.871,0.109 1.135,-0.447 1.439,-3.033 2.881,-6.066 4.385,-9.068 0.362,-0.722 0.08,-0.913 -0.499,-1.181 -5.775,-2.673 -11.812,-4.472 -18.102,-5.397 -15.857,-2.333 -31.096,0.315 -45.97,5.784 -2.056,0.756 -4.072,1.626 -6.08,2.506 -0.555,0.244 -0.889,0.201 -1.337,-0.199 C 45.41,64.857 37.972,58.255 30.539,51.649 24.578,46.352 18.625,41.046 12.645,35.771 12.04,35.237 11.813,34.699 11.814,33.895 c 0.022,-22.907 0.01,-45.813 0.043,-68.72 0.001,-0.969 -0.283,-1.383 -1.184,-1.712 -3.223,-1.171 -6.424,-2.41 -9.604,-3.697 -1.014,-0.41 -1.088,-0.086 -1.087,0.824 C 0.008,-26.273 0,-13.137 0,0"
             style="fill:#a71a27;fill-opacity:1;fill-rule:nonzero;stroke:none"
             id="path30" /></g><g
           id="g32"
           transform="translate(430.8828,309.6799)"><path
             d="m 0,0 c 0,-8.119 0.011,-16.238 -0.018,-24.357 -0.002,-0.748 0.155,-0.981 0.945,-0.973 4.062,0.044 8.126,-0.001 12.189,0.029 2.375,0.018 4.749,-0.103 7.124,0.197 13.388,1.696 22.811,12.949 22.094,26.433 C 41.607,15.004 30.808,25.254 17.119,25.259 11.775,25.261 6.431,25.232 1.087,25.285 0.14,25.294 -0.024,25.018 -0.021,24.137 0.016,16.091 0,8.045 0,0 m -11.831,0.011 c 0,11.709 0.008,23.418 -0.018,35.127 -10e-4,0.814 0.144,1.092 1.043,1.088 9.851,-0.049 19.72,0.32 29.549,-0.145 14.325,-0.678 25.613,-7.013 32.225,-20.054 9.562,-18.863 0.981,-42.947 -21.323,-50.264 -4.127,-1.354 -8.377,-2.014 -12.725,-2.015 -9.192,-10e-4 -18.385,0.014 -27.577,-0.021 -0.918,-0.004 -1.206,0.151 -1.202,1.157 0.044,11.708 0.028,23.417 0.028,35.127"
             style="fill:#010101;fill-opacity:1;fill-rule:nonzero;stroke:none"
             id="path34" /></g><g
           id="g36"
           transform="translate(608.2197,326.0988)"><path
             d="m 0,0 c 0,-2.887 0.016,-5.773 -0.012,-8.66 -0.006,-0.59 0.116,-0.821 0.767,-0.809 2.559,0.05 5.122,-0.025 7.678,0.072 2.181,0.083 4.286,0.611 6.034,2 3.288,2.612 3.849,6.171 3.061,9.987 C 16.737,6.42 14.052,8.48 10.341,9.192 7.088,9.817 3.775,9.4 0.49,9.501 -0.231,9.524 0.011,8.996 0.009,8.66 -0.006,5.773 0,2.887 0,0 m 0,-31.036 c 0,-3.509 0.021,-7.018 -0.018,-10.527 -0.006,-0.687 0.182,-0.85 0.853,-0.84 3.255,0.048 6.512,-0.023 9.765,0.065 7.906,0.212 12.585,5.822 11.423,13.618 -0.708,4.754 -4.545,8.167 -9.851,8.764 -3.757,0.423 -7.528,0.114 -11.29,0.233 -0.72,0.023 -0.907,-0.181 -0.899,-0.897 C 0.021,-24.091 0,-27.564 0,-31.036 m 22.069,17.008 c 2.419,-1.067 4.55,-2.243 6.389,-3.891 4.613,-4.135 6.406,-9.368 5.989,-15.439 -0.688,-10.008 -7.413,-16.285 -17.09,-18.439 -2.685,-0.598 -5.404,-0.886 -8.16,-0.879 -6.664,0.015 -13.328,0.024 -19.991,-0.017 -0.875,-0.006 -1.057,0.237 -1.056,1.074 0.024,23.45 0.024,46.899 0,70.349 -0.001,0.836 0.178,1.082 1.055,1.076 6.334,-0.042 12.669,0.029 19.003,-0.04 4.664,-0.052 9.161,-0.967 13.235,-3.354 5.672,-3.323 8.456,-8.381 8.736,-14.885 0.286,-6.664 -2.367,-11.822 -8.11,-15.555"
             style="fill:#010101;fill-opacity:1;fill-rule:nonzero;stroke:none"
             id="path38" /></g><g
           id="g40"
           transform="translate(664.4756,325.1335)"><path
             d="m 0,0 c 0,-3.292 0.012,-6.583 -0.011,-9.875 -0.005,-0.573 0.077,-0.835 0.752,-0.825 3.258,0.048 6.517,-0.024 9.773,0.067 5.843,0.161 9.541,3.5 10.298,9.185 0.822,6.175 -2.611,10.79 -8.778,11.677 C 8.397,10.752 4.725,10.343 1.071,10.479 0.253,10.51 -0.043,10.339 -0.024,9.436 0.039,6.292 0,3.146 0,0 m 44.6,-51.706 c -4.82,0 -9.426,0.009 -14.032,-0.011 -0.526,-0.003 -0.67,0.339 -0.886,0.668 -6.405,9.732 -12.819,19.459 -19.199,29.208 -0.435,0.666 -0.87,0.909 -1.659,0.893 -2.598,-0.053 -5.201,-0.066 -7.799,0.005 -0.908,0.025 -1.045,-0.285 -1.042,-1.094 0.027,-9.513 0.004,-19.026 0.038,-28.54 0.003,-0.882 -0.164,-1.173 -1.111,-1.154 -3.222,0.065 -6.445,0.049 -9.667,0.008 -0.798,-0.01 -1.099,0.116 -1.098,1.033 0.03,23.49 0.03,46.981 0.001,70.471 -0.001,0.864 0.259,0.989 1.035,0.985 6.958,-0.03 13.917,0.06 20.874,-0.042 5.504,-0.081 10.739,-1.3 15.318,-4.553 4.771,-3.389 7.272,-8.116 7.799,-13.865 0.458,-4.996 -0.328,-9.756 -3.225,-14.015 -1.896,-2.788 -4.393,-4.878 -7.392,-6.36 -0.827,-0.409 -1.032,-0.611 -0.421,-1.478 7.253,-10.311 14.456,-20.656 21.671,-30.992 0.226,-0.323 0.444,-0.652 0.795,-1.167"
             style="fill:#010101;fill-opacity:1;fill-rule:nonzero;stroke:none"
             id="path42" /></g><g
           id="g44"
           transform="translate(270.9424,295.2971)"><path
             d="m 0,0 c 0,-28.608 -0.007,-57.218 0.025,-85.826 0.002,-1.105 -0.232,-1.281 -1.314,-1.125 -3.076,0.441 -6.136,0.951 -9.182,1.57 -0.995,0.203 -1.324,0.534 -1.323,1.609 0.034,44.12 0.029,88.24 0.029,132.36 0,12.439 0.008,24.878 -0.018,37.316 -0.002,0.809 0.196,1.367 0.857,1.855 0.991,0.731 1.728,2.13 2.861,2.246 1.065,0.109 2.226,-0.762 3.352,-1.181 1.334,-0.497 2.666,-1.003 4.019,-1.441 C -0.141,87.205 0.088,86.94 0.005,86.374 -0.027,86.159 0,85.936 0,85.716 0,57.144 0,28.572 0,0"
             style="fill:#a71a27;fill-opacity:1;fill-rule:nonzero;stroke:none"
             id="path46" /></g><g
           id="g48"
           transform="translate(406.0869,321.4333)"><path
             d="m 0,0 c 0,-7.647 0.197,-15.3 -0.056,-22.939 -0.246,-7.439 -2.572,-14.213 -8.019,-19.594 -4.214,-4.163 -9.411,-6.327 -15.217,-7.1 -6.345,-0.847 -12.579,-0.425 -18.495,2.193 -8.193,3.626 -12.757,10.167 -14.671,18.732 -0.615,2.755 -0.864,5.554 -0.863,8.379 0.005,14.526 0.015,29.053 -0.025,43.579 -0.003,1.043 0.31,1.238 1.267,1.221 3.185,-0.058 6.373,-0.059 9.558,0.002 0.886,0.016 1.053,-0.252 1.052,-1.081 -0.026,-14.6 -0.017,-29.199 -0.019,-43.799 -10e-4,-2.98 0.296,-5.921 1.414,-8.707 2.254,-5.613 6.548,-8.6 12.438,-9.441 3.195,-0.456 6.359,-0.274 9.417,0.797 5.786,2.025 8.805,6.343 9.925,12.179 0.332,1.729 0.429,3.48 0.428,5.239 -0.002,14.563 0.009,29.126 -0.024,43.689 -0.002,0.911 0.207,1.142 1.123,1.124 3.259,-0.063 6.519,-0.063 9.778,0 0.903,0.018 1.047,-0.279 1.044,-1.092 C 0.025,15.588 0.037,7.794 0.037,0 Z"
             style="fill:#010101;fill-opacity:1;fill-rule:nonzero;stroke:none"
             id="path50" /></g><g
           id="g52"
           transform="translate(713.0752,309.7658)"><path
             d="m 0,0 c 0,11.672 0.012,23.344 -0.023,35.017 -0.003,0.911 0.21,1.125 1.123,1.122 12.745,-0.034 25.489,-0.037 38.233,0.005 1.007,0.003 1.183,-0.284 1.161,-1.204 -0.063,-2.706 -0.061,-5.416 0,-8.122 0.02,-0.856 -0.254,-1.006 -1.047,-1.004 C 30.622,25.843 21.796,25.811 12.97,25.86 11.957,25.866 11.804,25.566 11.81,24.651 11.852,18.724 11.856,12.796 11.806,6.869 11.798,5.924 12.069,5.755 12.953,5.76 20.351,5.798 27.749,5.757 35.146,5.81 36.161,5.817 36.339,5.515 36.318,4.592 36.256,1.885 36.254,-0.824 36.32,-3.53 c 0.022,-0.864 -0.256,-0.993 -1.036,-0.991 -7.471,0.03 -14.942,0.002 -22.413,0.041 -0.872,0.004 -1.064,-0.234 -1.059,-1.076 0.036,-6.44 0.039,-12.88 -0.002,-19.319 -0.006,-0.92 0.154,-1.213 1.162,-1.207 8.789,0.049 17.579,0.014 26.368,0.05 0.895,0.004 1.177,-0.189 1.154,-1.12 -0.064,-2.78 -0.043,-5.562 -0.008,-8.342 0.008,-0.648 -0.118,-0.863 -0.825,-0.861 -12.965,0.023 -25.929,0.029 -38.892,-0.008 C -0.168,-36.366 0,-35.876 0,-35.347 Z"
             style="fill:#010101;fill-opacity:1;fill-rule:nonzero;stroke:none"
             id="path54" /></g><g
           id="g56"
           transform="translate(229.7441,356.1467)"><path
             d="m 0,0 c 2.187,-3.281 4.091,-6.644 5.838,-10.097 5.727,-11.324 9.374,-23.298 10.671,-35.906 2.966,-28.852 -4.345,-54.853 -22.08,-77.875 -0.736,-0.955 -1.53,-1.867 -2.266,-2.822 -0.293,-0.381 -0.505,-0.398 -0.872,-0.088 -2.688,2.265 -5.234,4.679 -7.703,7.179 -0.627,0.634 -0.11,0.936 0.209,1.324 6.645,8.087 11.83,17.017 15.528,26.807 4.553,12.056 6.529,24.54 5.997,37.396 -0.558,13.496 -3.848,26.319 -9.904,38.414 -0.234,0.468 -0.38,0.92 -0.376,1.453 0.017,3 0.009,5.999 0.006,8.999 0,0.439 -0.014,0.835 0.388,1.18 C -3.042,-2.727 -1.553,-1.378 0,0"
             style="fill:#a71a27;fill-opacity:1;fill-rule:nonzero;stroke:none"
             id="path58" /></g><g
           id="g60"
           transform="translate(140.4292,393.051)"><path
             d="m 0,0 c -16.642,-0.121 -31.998,-3.986 -46.306,-11.871 -0.773,-0.426 -1.056,-0.329 -1.464,0.415 -1.579,2.882 -3.208,5.736 -4.87,8.57 -0.37,0.631 -0.286,0.868 0.343,1.217 10.872,6.018 22.436,10.021 34.699,12.038 5.715,0.94 11.47,1.415 17.252,1.398 C 15.066,11.72 29.837,8.625 43.893,2.246 50.2,-0.617 56.15,-4.093 61.804,-8.089 c 0.694,-0.491 0.749,-0.76 0.106,-1.351 -2.48,-2.278 -4.818,-4.7 -7.01,-7.256 -0.428,-0.5 -0.708,-0.516 -1.235,-0.151 C 42.544,-9.146 30.325,-4.074 17.021,-1.607 11.289,-0.544 5.503,-0.064 0,0"
             style="fill:#a71a27;fill-opacity:1;fill-rule:nonzero;stroke:none"
             id="path62" /></g><g
           id="g64"
           transform="translate(521.4541,309.7068)"><path
             d="m 0,0 c 0,11.709 0.01,23.419 -0.02,35.128 -0.001,0.851 0.199,1.084 1.063,1.069 3.223,-0.055 6.446,-0.057 9.668,10e-4 0.9,0.016 1.145,-0.191 1.143,-1.122 -0.03,-19.686 -0.01,-39.373 -0.053,-59.059 -0.002,-1.185 0.345,-1.385 1.436,-1.379 8.717,0.046 17.433,0.016 26.15,0.042 0.815,0.003 1.13,-0.136 1.109,-1.052 -0.065,-2.999 -0.043,-6.001 -0.011,-9.001 0.008,-0.669 -0.106,-0.927 -0.871,-0.925 -12.928,0.027 -25.856,0.031 -38.785,-0.005 -0.95,-0.003 -0.833,0.474 -0.833,1.065 C 0.002,-23.492 0,-11.746 0,0"
             style="fill:#010101;fill-opacity:1;fill-rule:nonzero;stroke:none"
             id="path66" /></g><g
           id="g68"
           transform="translate(309.1406,267.0432)"><path
             d="m 0,0 c 2.43,-0.55 4.767,-0.551 7.088,-0.136 4.559,0.817 7.241,3.926 7.659,8.844 0.121,1.418 0.187,2.845 0.188,4.268 0.011,21.551 0.015,43.103 -0.016,64.654 -0.002,0.998 0.244,1.255 1.238,1.234 3.259,-0.068 6.519,-0.041 9.778,-0.012 0.658,0.006 0.933,-0.084 0.932,-0.861 C 26.842,55.415 26.858,32.839 26.832,10.263 26.829,7.554 26.407,4.876 25.637,2.268 23.342,-5.512 17.96,-9.63 10.085,-10.721 c -3.091,-0.427 -6.199,-0.418 -9.304,-0.05 -0.492,0.059 -0.799,0.136 -0.794,0.757 C 0.015,-6.725 0,-3.435 0,0"
             style="fill:#010101;fill-opacity:1;fill-rule:nonzero;stroke:none"
             id="path70" /></g><g
           id="g72"
           transform="translate(506.4766,309.6018)"><path
             d="m 0,0 c 0,-11.672 -0.015,-23.345 0.025,-35.017 0.004,-0.981 -0.244,-1.201 -1.197,-1.182 -3.259,0.065 -6.518,0.048 -9.778,0.008 -0.715,-0.009 -0.899,0.178 -0.898,0.896 0.02,23.564 0.02,47.128 0,70.692 0,0.71 0.171,0.91 0.894,0.901 3.296,-0.041 6.593,-0.047 9.888,0.002 0.84,0.013 1.09,-0.18 1.087,-1.063 C -0.011,23.491 0,11.746 0,0"
             style="fill:#010101;fill-opacity:1;fill-rule:nonzero;stroke:none"
             id="path74" /></g><g
           id="g76"
           transform="translate(569.5791,309.7649)"><path
             d="m 0,0 c 0,11.672 0.012,23.345 -0.022,35.017 -0.003,0.911 0.206,1.143 1.123,1.125 3.184,-0.064 6.372,-0.065 9.557,0 0.949,0.019 1.201,-0.196 1.199,-1.181 -0.035,-18.917 -0.025,-37.834 -0.025,-56.751 0,-4.537 -0.02,-9.075 0.02,-13.612 0.006,-0.785 -0.22,-0.963 -0.975,-0.953 -3.295,0.042 -6.593,0.049 -9.888,-0.004 -0.825,-0.014 -1.011,0.196 -1.01,1.012 C 0.01,-23.564 0,-11.782 0,0"
             style="fill:#010101;fill-opacity:1;fill-rule:nonzero;stroke:none"
             id="path78" /></g><g
           id="g80"
           transform="translate(536.8916,254.0949)"><path
             d="m 0,0 h -6.099 v 4.122 c 0,1.198 -0.065,1.946 -0.195,2.243 -0.131,0.298 -0.418,0.447 -0.862,0.447 -0.502,0 -0.822,-0.181 -0.956,-0.542 C -8.247,5.908 -8.315,5.127 -8.315,3.926 V -7.09 c 0,-1.152 0.068,-1.904 0.203,-2.256 0.134,-0.351 0.439,-0.527 0.913,-0.527 0.453,0 0.751,0.176 0.89,0.528 0.14,0.353 0.21,1.18 0.21,2.482 v 2.981 H 0 v -0.924 c 0,-2.455 -0.171,-4.196 -0.514,-5.222 -0.342,-1.028 -1.101,-1.927 -2.274,-2.7 -1.174,-0.772 -2.62,-1.159 -4.339,-1.159 -1.787,0 -3.26,0.327 -4.419,0.982 -1.158,0.654 -1.927,1.559 -2.303,2.717 -0.377,1.157 -0.565,2.898 -0.565,5.222 v 6.929 c 0,1.709 0.058,2.99 0.174,3.846 0.116,0.853 0.461,1.676 1.036,2.467 0.574,0.791 1.371,1.413 2.39,1.869 1.019,0.453 2.19,0.68 3.513,0.68 1.796,0 3.279,-0.351 4.447,-1.054 C -1.685,9.069 -0.917,8.194 -0.55,7.146 -0.184,6.098 0,4.467 0,2.253 Z"
             style="fill:#a71a27;fill-opacity:1;fill-rule:nonzero;stroke:none"
             id="path82" /></g><g
           id="g84"
           transform="translate(546.917,258.3283)"><path
             d="M 0,0 C 0,1.104 -0.061,1.81 -0.182,2.116 -0.303,2.425 -0.551,2.578 -0.928,2.578 -1.246,2.578 -1.49,2.454 -1.659,2.204 -1.828,1.956 -1.913,1.221 -1.913,0 v -11.074 c 0,-1.377 0.056,-2.227 0.167,-2.549 0.111,-0.322 0.369,-0.483 0.775,-0.483 0.415,0 0.681,0.185 0.797,0.556 0.115,0.371 0.174,1.255 0.174,2.652 z m 6.099,-7.793 c 0,-2.383 -0.056,-4.07 -0.167,-5.062 -0.111,-0.991 -0.458,-1.896 -1.043,-2.716 -0.584,-0.821 -1.374,-1.45 -2.368,-1.89 -0.996,-0.439 -2.155,-0.659 -3.477,-0.659 -1.256,0 -2.384,0.208 -3.383,0.623 -1,0.414 -1.804,1.037 -2.412,1.867 -0.608,0.83 -0.971,1.734 -1.087,2.71 -0.116,0.977 -0.174,2.686 -0.174,5.127 v 4.058 c 0,2.382 0.056,4.069 0.167,5.06 0.111,0.991 0.458,1.898 1.043,2.718 0.584,0.82 1.374,1.45 2.368,1.89 0.996,0.439 2.154,0.659 3.478,0.659 1.255,0 2.383,-0.208 3.382,-0.622 1,-0.416 1.803,-1.038 2.412,-1.868 C 5.446,3.271 5.809,2.368 5.925,1.392 6.041,0.415 6.099,-1.294 6.099,-3.735 Z"
             style="fill:#a71a27;fill-opacity:1;fill-rule:nonzero;stroke:none"
             id="path86" /></g><g
           id="g88"
           transform="translate(569.1543,264.4221)"><path
             d="m 0,0 v -15.85 c 0,-1.796 -0.059,-3.059 -0.174,-3.786 -0.116,-0.728 -0.459,-1.475 -1.029,-2.242 -0.569,-0.767 -1.32,-1.348 -2.252,-1.742 -0.933,-0.397 -2.031,-0.594 -3.296,-0.594 -1.4,0 -2.637,0.234 -3.709,0.703 -1.072,0.469 -1.874,1.079 -2.404,1.831 -0.532,0.752 -0.846,1.546 -0.943,2.38 -0.096,0.836 -0.144,2.591 -0.144,5.267 V 0 h 6.098 v -17.783 c 0,-1.035 0.056,-1.697 0.167,-1.986 0.112,-0.288 0.336,-0.431 0.674,-0.431 0.386,0 0.635,0.158 0.746,0.476 0.111,0.317 0.166,1.067 0.166,2.248 L -6.1,0 Z"
             style="fill:#a71a27;fill-opacity:1;fill-rule:nonzero;stroke:none"
             id="path90" /></g><g
           id="g92"
           transform="translate(577.6143,260.3645)"><path
             d="m 0,0 v -5.273 c 0.687,0 1.167,0.095 1.441,0.285 0.276,0.191 0.413,0.808 0.413,1.853 v 1.304 c 0,0.752 -0.132,1.245 -0.398,1.479 C 1.19,-0.117 0.705,0 0,0 m -6.099,4.058 h 4.318 C 1.097,4.058 3.045,3.945 4.064,3.721 5.083,3.496 5.913,2.922 6.556,2 7.198,1.076 7.52,-0.396 7.52,-2.417 7.52,-4.263 7.292,-5.503 6.838,-6.138 6.384,-6.772 5.491,-7.153 4.158,-7.28 5.365,-7.583 6.177,-7.988 6.592,-8.496 7.007,-9.004 7.266,-9.471 7.367,-9.895 7.469,-10.32 7.52,-11.489 7.52,-13.403 v -6.255 H 1.854 v 7.881 c 0,1.269 -0.098,2.055 -0.296,2.358 C 1.359,-9.116 0.841,-8.965 0,-8.965 v -10.693 h -6.099 z"
             style="fill:#a71a27;fill-opacity:1;fill-rule:nonzero;stroke:none"
             id="path94" /></g><g
           id="g96"
           transform="translate(598.8232,260.3645)"><path
             d="m 0,0 v -15.601 c 0.879,0 1.42,0.178 1.623,0.535 0.203,0.356 0.304,1.326 0.304,2.908 v 9.214 c 0,1.074 -0.033,1.762 -0.101,2.065 C 1.758,-0.576 1.604,-0.354 1.362,-0.213 1.121,-0.071 0.667,0 0,0 m -6.099,4.058 h 4.564 C 1.41,4.058 3.402,3.921 4.44,3.647 5.479,3.374 6.269,2.925 6.81,2.3 7.35,1.675 7.687,0.979 7.823,0.213 7.958,-0.555 8.026,-2.061 8.026,-4.307 v -8.305 c 0,-2.129 -0.099,-3.552 -0.297,-4.271 -0.198,-0.717 -0.543,-1.279 -1.036,-1.683 -0.492,-0.407 -1.1,-0.69 -1.825,-0.85 -0.724,-0.162 -1.816,-0.242 -3.274,-0.242 h -7.693 z"
             style="fill:#a71a27;fill-opacity:1;fill-rule:nonzero;stroke:none"
             id="path98" /></g><g
           id="g100"
           transform="translate(609.123,264.4221)"><path
             d="M 0,0 H 10.17 V -4.746 H 6.099 v -4.497 h 3.81 v -4.512 h -3.81 v -5.215 h 4.476 v -4.746 H 0 Z"
             style="fill:#a71a27;fill-opacity:1;fill-rule:nonzero;stroke:none"
             id="path102" /></g><g
           id="g104"
           transform="translate(640.9219,254.0949)"><path
             d="m 0,0 h -6.099 v 4.122 c 0,1.198 -0.065,1.946 -0.195,2.243 -0.131,0.298 -0.418,0.447 -0.862,0.447 -0.502,0 -0.822,-0.181 -0.956,-0.542 C -8.247,5.908 -8.315,5.127 -8.315,3.926 V -7.09 c 0,-1.152 0.068,-1.904 0.203,-2.256 0.134,-0.351 0.439,-0.527 0.913,-0.527 0.453,0 0.751,0.176 0.89,0.528 0.14,0.353 0.21,1.18 0.21,2.482 v 2.981 H 0 v -0.924 c 0,-2.455 -0.171,-4.196 -0.514,-5.222 -0.342,-1.028 -1.101,-1.927 -2.274,-2.7 -1.174,-0.772 -2.62,-1.159 -4.339,-1.159 -1.787,0 -3.26,0.327 -4.419,0.982 -1.158,0.654 -1.927,1.559 -2.303,2.717 -0.377,1.157 -0.565,2.898 -0.565,5.222 v 6.929 c 0,1.709 0.058,2.99 0.174,3.846 0.116,0.853 0.461,1.676 1.036,2.467 0.574,0.791 1.371,1.413 2.39,1.869 1.019,0.453 2.19,0.68 3.513,0.68 1.796,0 3.279,-0.351 4.447,-1.054 C -1.685,9.069 -0.917,8.194 -0.55,7.146 -0.184,6.098 0,4.467 0,2.253 Z"
             style="fill:#a71a27;fill-opacity:1;fill-rule:nonzero;stroke:none"
             id="path106" /></g><g
           id="g108"
           transform="translate(650.4199,249.173)"><path
             d="M 0,0 C -0.309,2.687 -0.618,6.006 -0.929,9.961 -1.551,5.42 -1.94,2.1 -2.1,0 Z M 3.232,15.249 6.72,-8.467 H 0.487 L 0.16,-4.204 h -2.181 l -0.368,-4.263 h -6.305 l 3.111,23.716 z"
             style="fill:#a71a27;fill-opacity:1;fill-rule:nonzero;stroke:none"
             id="path110" /></g><g
           id="g112"
           transform="translate(671.0986,257.2444)"><path
             d="m 0,0 h -5.665 v 1.758 c 0,0.82 -0.072,1.343 -0.217,1.567 -0.145,0.225 -0.387,0.337 -0.724,0.337 -0.368,0 -0.645,-0.151 -0.833,-0.454 -0.189,-0.304 -0.283,-0.763 -0.283,-1.378 0,-0.792 0.106,-1.388 0.318,-1.789 0.202,-0.4 0.776,-0.884 1.723,-1.449 2.715,-1.63 4.425,-2.967 5.13,-4.012 0.705,-1.045 1.058,-2.729 1.058,-5.054 0,-1.689 -0.196,-2.934 -0.587,-3.735 -0.392,-0.801 -1.148,-1.472 -2.268,-2.015 -1.12,-0.541 -2.423,-0.812 -3.911,-0.812 -1.632,0 -3.025,0.312 -4.179,0.937 -1.155,0.625 -1.911,1.421 -2.267,2.388 -0.358,0.967 -0.536,2.339 -0.536,4.116 v 1.553 h 5.664 v -2.886 c 0,-0.888 0.08,-1.46 0.239,-1.714 0.159,-0.254 0.442,-0.38 0.848,-0.38 0.405,0 0.707,0.161 0.905,0.483 0.197,0.322 0.297,0.801 0.297,1.435 0,1.397 -0.189,2.31 -0.566,2.74 -0.385,0.429 -1.337,1.147 -2.853,2.153 -1.517,1.016 -2.521,1.753 -3.014,2.212 -0.492,0.459 -0.9,1.094 -1.223,1.904 -0.325,0.811 -0.486,1.846 -0.486,3.106 0,1.816 0.23,3.144 0.689,3.984 0.458,0.84 1.199,1.496 2.223,1.971 1.024,0.472 2.26,0.71 3.708,0.71 1.584,0 2.934,-0.259 4.05,-0.777 1.115,-0.517 1.854,-1.17 2.216,-1.955 C -0.182,4.157 0,2.822 0,0.937 Z"
             style="fill:#a71a27;fill-opacity:1;fill-rule:nonzero;stroke:none"
             id="path114" /></g><g
           id="g116"
           transform="translate(686.4404,257.2444)"><path
             d="m 0,0 h -5.665 v 1.758 c 0,0.82 -0.072,1.343 -0.217,1.567 -0.145,0.225 -0.387,0.337 -0.724,0.337 -0.368,0 -0.645,-0.151 -0.833,-0.454 -0.189,-0.304 -0.283,-0.763 -0.283,-1.378 0,-0.792 0.106,-1.388 0.318,-1.789 0.202,-0.4 0.776,-0.884 1.723,-1.449 2.715,-1.63 4.425,-2.967 5.13,-4.012 0.705,-1.045 1.058,-2.729 1.058,-5.054 0,-1.689 -0.196,-2.934 -0.587,-3.735 -0.392,-0.801 -1.148,-1.472 -2.268,-2.015 -1.12,-0.541 -2.423,-0.812 -3.911,-0.812 -1.632,0 -3.025,0.312 -4.179,0.937 -1.155,0.625 -1.911,1.421 -2.267,2.388 -0.358,0.967 -0.536,2.339 -0.536,4.116 v 1.553 h 5.664 v -2.886 c 0,-0.888 0.08,-1.46 0.239,-1.714 0.159,-0.254 0.442,-0.38 0.848,-0.38 0.405,0 0.707,0.161 0.905,0.483 0.197,0.322 0.297,0.801 0.297,1.435 0,1.397 -0.189,2.31 -0.566,2.74 -0.385,0.429 -1.337,1.147 -2.853,2.153 -1.517,1.016 -2.521,1.753 -3.014,2.212 -0.492,0.459 -0.9,1.094 -1.223,1.904 -0.325,0.811 -0.486,1.846 -0.486,3.106 0,1.816 0.23,3.144 0.689,3.984 0.458,0.84 1.199,1.496 2.223,1.971 1.024,0.472 2.26,0.71 3.708,0.71 1.584,0 2.934,-0.259 4.05,-0.777 1.115,-0.517 1.854,-1.17 2.216,-1.955 C -0.182,4.157 0,2.822 0,0.937 Z"
             style="fill:#a71a27;fill-opacity:1;fill-rule:nonzero;stroke:none"
             id="path118" /></g><g
           id="g120"
           transform="translate(696.1699,249.173)"><path
             d="M 0,0 C -0.309,2.687 -0.618,6.006 -0.929,9.961 -1.551,5.42 -1.94,2.1 -2.1,0 Z M 3.232,15.249 6.72,-8.467 H 0.487 L 0.16,-4.204 h -2.181 l -0.368,-4.263 h -6.305 l 3.111,23.716 z"
             style="fill:#a71a27;fill-opacity:1;fill-rule:nonzero;stroke:none"
             id="path122" /></g><g
           id="g124"
           transform="translate(714.5732,264.4221)"><path
             d="m 0,0 v -4.746 h -3.622 v -18.97 h -6.099 v 18.97 h -3.607 V 0 Z"
             style="fill:#a71a27;fill-opacity:1;fill-rule:nonzero;stroke:none"
             id="path126" /></g><path
           d="m 722.062,240.706 h -6.099 v 23.716 h 6.099 z"
           style="fill:#a71a27;fill-opacity:1;fill-rule:nonzero;stroke:none"
           id="path128" /><g
           id="g130"
           transform="translate(732.3496,258.3283)"><path
             d="M 0,0 C 0,1.104 -0.061,1.81 -0.182,2.116 -0.303,2.425 -0.551,2.578 -0.928,2.578 -1.246,2.578 -1.49,2.454 -1.659,2.204 -1.828,1.956 -1.913,1.221 -1.913,0 v -11.074 c 0,-1.377 0.056,-2.227 0.167,-2.549 0.111,-0.322 0.369,-0.483 0.775,-0.483 0.415,0 0.681,0.185 0.797,0.556 0.115,0.371 0.174,1.255 0.174,2.652 z m 6.099,-7.793 c 0,-2.383 -0.056,-4.07 -0.167,-5.062 -0.111,-0.991 -0.458,-1.896 -1.043,-2.716 -0.584,-0.821 -1.374,-1.45 -2.368,-1.89 -0.996,-0.439 -2.155,-0.659 -3.477,-0.659 -1.256,0 -2.384,0.208 -3.383,0.623 -1,0.414 -1.804,1.037 -2.412,1.867 -0.608,0.83 -0.971,1.734 -1.087,2.71 -0.116,0.977 -0.174,2.686 -0.174,5.127 v 4.058 c 0,2.382 0.056,4.069 0.167,5.06 0.111,0.991 0.458,1.898 1.043,2.718 0.584,0.82 1.374,1.45 2.368,1.89 0.996,0.439 2.154,0.659 3.478,0.659 1.255,0 2.383,-0.208 3.382,-0.622 1,-0.416 1.803,-1.038 2.412,-1.868 C 5.446,3.271 5.809,2.368 5.925,1.392 6.041,0.415 6.099,-1.294 6.099,-3.735 Z"
             style="fill:#a71a27;fill-opacity:1;fill-rule:nonzero;stroke:none"
             id="path132" /></g><g
           id="g134"
           transform="translate(754.3398,264.4221)"><path
             d="m 0,0 v -23.716 h -5.346 l -3.173,10.781 v -10.781 h -5.099 V 0 h 5.099 L -5.1,-10.679 V 0 Z"
             style="fill:#a71a27;fill-opacity:1;fill-rule:nonzero;stroke:none"
             id="path136" /></g></g></g></g></svg>
